#!OML:ASF X:\für Bonn\!DataBase\2005_08_11_Bastian_Final\c3d\Bastian.ASF
:FULLY-SPECIFIED
:DEGREES
129
root -1.26302 17.1106 -5.47294 161.73 24.8882 -178.123
lowerback 15.7514 -0.385038 6.62959
upperback 8.70358 1.547 0.515698
thorax 0.567538 1.49866 -3.41778
lowerneck -7.23662 1.38086 -6.33646
upperneck -6.9306 2.89655 4.84439
head -1.12491 1.76363 2.68097
rclavicle 5.77221e-014 -5.96354e-015
rhumerus -57.8403 19.0741 -99.9394
rradius 109.963
rwrist 8.35531
rhand -15.5054 12.4492
rfingers 7.12502
rthumb 10.6773 -17.2595
lclavicle 5.77221e-014 -5.96354e-015
lhumerus -37.511 0.206628 77.2377
lradius 50.2156
lwrist 39.7749
lhand -5.52807 -11.9898
lfingers 7.12502
lthumb 20.286 16.9708
rfemur 14.272 0.151399 27.7687
rtibia 32.5094
rfoot -201.811 -184.737
rtoes -0.547012
lfemur -27.4964 19.7205 -5.84166
ltibia 96.5407
lfoot -4.82308 4.23336
ltoes -29.8068
130
root -1.26758 17.0861 -5.50121 162.115 24.9499 -177.685
lowerback 15.3951 -0.458248 6.63799
upperback 8.57057 1.39681 0.75912
thorax 0.589829 1.40023 -3.13827
lowerneck -7.19094 1.42494 -6.41578
upperneck -6.90024 2.95717 4.97786
head -1.13067 1.79206 2.7413
rclavicle 9.51682e-015 1.19271e-014
rhumerus -57.4376 19.284 -100.126
rradius 109.69
rwrist 8.32417
rhand -15.7814 12.3971
rfingers 7.12502
rthumb 10.4111 -17.3252
lclavicle 9.51682e-015 1.19271e-014
lhumerus -37.2982 0.050217 76.9385
lradius 52.1908
lwrist 39.97
lhand -5.52589 -12.0674
lfingers 7.12502
lthumb 20.2881 16.893
rfemur 13.8789 -0.0866612 28.0208
rtibia 33.0514
rfoot -202.277 -184.515
rtoes -0.54918
lfemur -25.3904 18.773 -5.75247
ltibia 95.1165
lfoot -5.01983 4.9446
ltoes -29.0268
131
root -1.27077 17.0551 -5.53024 162.516 24.9716 -177.266
lowerback 15.0079 -0.517489 6.58857
upperback 8.43865 1.25614 1.01704
thorax 0.630558 1.3056 -2.81332
lowerneck -7.23383 1.44808 -6.62476
upperneck -6.81739 3.00541 5.19273
head -1.10755 1.81801 2.85518
rclavicle 5.11871e-015 -2.62396e-014
rhumerus -57.0657 19.5039 -100.27
rradius 109.446
rwrist 8.26621
rhand -16.1253 12.3924
rfingers 7.12502
rthumb 10.0793 -17.3462
lclavicle 5.11871e-015 -2.62396e-014
lhumerus -37.0987 -0.101792 76.7545
lradius 54.2523
lwrist 40.2269
lhand -5.58981 -12.0967
lfingers 7.12502
lthumb 20.2266 16.8702
rfemur 13.4402 -0.318694 28.2678
rtibia 33.654
rfoot -202.743 -184.347
rtoes -0.551048
lfemur -23.4068 17.8885 -5.72223
ltibia 93.643
lfoot -5.16727 5.56399
ltoes -28.2361
132
root -1.27316 17.0201 -5.56267 162.943 24.9129 -176.879
lowerback 14.5455 -0.579219 6.52664
upperback 8.28114 1.09877 1.23603
thorax 0.68574 1.20059 -2.52088
lowerneck -7.29923 1.45903 -6.79912
upperneck -6.6604 3.02968 5.4037
head -1.05437 1.82931 2.96216
rclavicle 1.78409e-014 5.56597e-015
rhumerus -56.7495 19.6575 -100.493
rradius 109.277
rwrist 8.18291
rhand -16.429 12.3592
rfingers 7.12502
rthumb 9.78631 -17.3934
lclavicle 1.78409e-014 5.56597e-015
lhumerus -36.9486 -0.30431 76.6154
lradius 56.3586
lwrist 40.5438
lhand -5.67163 -12.1317
lfingers 7.12502
lthumb 20.148 16.8435
rfemur 12.9492 -0.568136 28.4837
rtibia 34.3022
rfoot -203.262 -184.219
rtoes -0.56518
lfemur -21.5647 17.0609 -5.78147
ltibia 92.1281
lfoot -5.35729 6.11443
ltoes -27.4203
133
root -1.27449 16.986 -5.59914 163.409 24.8229 -176.478
lowerback 13.9677 -0.64103 6.48076
upperback 8.15298 0.935469 1.46012
thorax 0.836249 1.09807 -2.23069
lowerneck -7.38457 1.45874 -6.996
upperneck -6.52678 3.04583 5.62976
head -1.00538 1.83882 3.07931
rclavicle -2.83268e-014 1.35174e-014
rhumerus -56.3857 19.8277 -100.686
rradius 109.188
rwrist 8.0549
rhand -16.6588 12.2884
rfingers 7.12502
rthumb 9.56456 -17.4745
lclavicle -2.83268e-014 1.35174e-014
lhumerus -36.7436 -0.446367 76.5584
lradius 58.495
lwrist 40.8655
lhand -5.81392 -12.0716
lfingers 7.12502
lthumb 20.0112 16.918
rfemur 12.4366 -0.792718 28.7291
rtibia 34.9608
rfoot -203.751 -184.154
rtoes -0.564549
lfemur -19.8241 16.3049 -5.86763
ltibia 90.5448
lfoot -5.65502 6.5722
ltoes -27.057
134
root -1.27479 16.9555 -5.63922 163.878 24.6894 -176.131
lowerback 13.3233 -0.689847 6.42631
upperback 8.01777 0.779093 1.64126
thorax 1.01932 0.999097 -1.98351
lowerneck -7.26292 1.45038 -7.20911
upperneck -6.48249 3.0394 5.87164
head -1.02006 1.83405 3.20222
rclavicle 3.37934e-014 3.1408e-014
rhumerus -56.0509 19.9307 -100.948
rradius 109.123
rwrist 7.94848
rhand -16.9306 12.2041
rfingers 7.12502
rthumb 9.30232 -17.5706
lclavicle 3.37934e-014 3.1408e-014
lhumerus -36.5181 -0.617683 76.5375
lradius 60.6593
lwrist 41.1171
lhand -5.9552 -11.9659
lfingers 7.12502
lthumb 19.8754 17.0378
rfemur 11.928 -0.988438 28.9441
rtibia 35.5747
rfoot -204.203 -184.16
rtoes -0.55232
lfemur -18.194 15.6158 -6.02579
ltibia 88.8697
lfoot -6.06231 6.89943
ltoes -26.858
135
root -1.27459 16.9303 -5.68167 164.367 24.5325 -175.807
lowerback 12.6163 -0.730124 6.37452
upperback 7.88274 0.627723 1.80622
thorax 1.24014 0.903666 -1.75744
lowerneck -6.97349 1.43037 -7.50954
upperneck -6.53197 3.01536 6.16124
head -1.09574 1.82009 3.35658
rclavicle -3.97569e-016 -1.55052e-014
rhumerus -55.7254 20.03 -101.246
rradius 109.097
rwrist 7.9474
rhand -17.1844 12.1207
rfingers 7.12502
rthumb 9.05739 -17.6648
lclavicle -3.97569e-016 -1.55052e-014
lhumerus -36.2864 -0.810871 76.5673
lradius 62.7811
lwrist 41.3825
lhand -6.10336 -11.8809
lfingers 7.12502
lthumb 19.733 17.1375
rfemur 11.4319 -1.21051 29.1229
rtibia 36.1119
rfoot -204.565 -184.155
rtoes -0.317391
lfemur -16.6756 14.9428 -6.22018
ltibia 87.0955
lfoot -6.61063 7.07928
ltoes -26.3844
136
root -1.27363 16.9087 -5.7261 164.848 24.363 -175.507
lowerback 11.9112 -0.751545 6.32469
upperback 7.73951 0.501161 1.94233
thorax 1.45674 0.820726 -1.5684
lowerneck -6.74519 1.3964 -7.74515
upperneck -6.50044 2.96618 6.44356
head -1.13136 1.7913 3.49795
rclavicle 1.07095e-014 3.97569e-015
rhumerus -55.4262 20.0725 -101.594
rradius 109.102
rwrist 8.00032
rhand -17.4541 12.0519
rfingers 7.12502
rthumb 8.79715 -17.7447
lclavicle 1.07095e-014 3.97569e-015
lhumerus -36.0223 -1.08932 76.6487
lradius 64.8306
lwrist 41.5706
lhand -6.29062 -11.8046
lfingers 7.12502
lthumb 19.553 17.2322
rfemur 10.9662 -1.46673 29.2657
rtibia 36.5754
rfoot -204.832 -184.139
rtoes 0.0149271
lfemur -15.2585 14.3175 -6.42121
ltibia 85.2423
lfoot -7.21822 7.07016
ltoes -25.9659
137
root -1.27167 16.8909 -5.77286 165.32 24.1473 -175.256
lowerback 11.2111 -0.777362 6.20524
upperback 7.59277 0.363733 2.07272
thorax 1.668 0.729909 -1.3482
lowerneck -6.62127 1.35052 -7.9812
upperneck -6.40353 2.90518 6.72229
head -1.12624 1.75776 3.64057
rclavicle 5.59082e-015 -7.15625e-015
rhumerus -55.1265 20.1924 -101.94
rradius 109.132
rwrist 8.1401
rhand -17.6984 11.9759
rfingers 7.12502
rthumb 8.56141 -17.8305
lclavicle 5.59082e-015 -7.15625e-015
lhumerus -35.7435 -1.34209 76.7849
lradius 66.8276
lwrist 41.7227
lhand -6.42891 -11.7395
lfingers 7.12502
lthumb 19.42 17.3107
rfemur 10.4976 -1.77574 29.3432
rtibia 37.0374
rfoot -205.115 -184.13
rtoes 0.244615
lfemur -13.9359 13.6978 -6.67962
ltibia 83.3325
lfoot -7.88552 6.89226
ltoes -25.6259
138
root -1.26978 16.8743 -5.82295 165.819 23.9305 -175.002
lowerback 10.5017 -0.797569 6.12495
upperback 7.4284 0.234997 2.15709
thorax 1.87032 0.643916 -1.20135
lowerneck -6.55516 1.30068 -8.07177
upperneck -6.28295 2.83358 6.96242
head -1.09855 1.71739 3.74242
rclavicle -1.16786e-015 -1.27222e-014
rhumerus -54.8589 20.2543 -102.389
rradius 109.16
rwrist 8.41083
rhand -17.9 11.9206
rfingers 7.12502
rthumb 8.3668 -17.8937
lclavicle -1.16786e-015 -1.27222e-014
lhumerus -35.4403 -1.6553 76.92
lradius 68.7578
lwrist 41.8518
lhand -6.52941 -11.7358
lfingers 7.12502
lthumb 19.3234 17.3241
rfemur 10.0288 -2.10965 29.4072
rtibia 37.4461
rfoot -205.344 -184.089
rtoes 0.449955
lfemur -12.7113 13.1124 -6.92089
ltibia 81.3747
lfoot -8.59417 6.4713
ltoes -25.3037
139
root -1.26939 16.8461 -5.87367 166.277 23.6694 -174.794
lowerback 9.83463 -0.818113 5.99037
upperback 7.25473 0.107339 2.23132
thorax 2.04186 0.556076 -1.03769
lowerneck -6.57128 1.24747 -8.14218
upperneck -6.06871 2.75562 7.20106
head -1.0245 1.67343 3.84135
rclavicle 1.1783e-013 1.19271e-014
rhumerus -54.5975 20.3035 -102.84
rradius 109.172
rwrist 8.7726
rhand -18.0759 11.9007
rfingers 7.12502
rthumb 8.19705 -17.9203
lclavicle 1.1783e-013 1.19271e-014
lhumerus -35.1137 -1.98117 77.1284
lradius 70.6169
lwrist 41.9951
lhand -6.51453 -11.7638
lfingers 7.12502
lthumb 19.3377 17.2947
rfemur 9.5737 -2.43796 29.4442
rtibia 37.8581
rfoot -205.6 -184.136
rtoes 0.295862
lfemur -11.5817 12.5391 -7.20708
ltibia 79.4279
lfoot -9.32865 5.85086
ltoes -25.0962
